<svg width="232" height="165" viewBox="0 0 232 165" fill="none" xmlns="http://www.w3.org/2000/svg">
<path fill-rule="evenodd" clip-rule="evenodd" d="M148.82 0.78C145.43 0.27 142.01 0.01 138.59 0L102.62 0.17L102.76 15.97H138.69C147.78 15.97 156.74 18.61 164.12 23.9C174.33 31.21 181.43 42.98 181.89 57.2C182.65 80.43 164.7 100.56 142.89 101.96H102.62V161.17H116.08L115.89 117.05H141.6C174.39 114.59 197.77 89.51 197.81 57.83C197.85 29.82 176.96 6.02 148.83 0.78H148.82Z" fill="#FB8518"/>
<path d="M98 2.08V0L20.22 77.78L5.36002 92.64C4.94002 93.06 4.57004 93.53 4.25004 94.03C-3.13996 101.42 -1.52995 117.05 16.2 117.05H84.4601V161.15H97.93V102.02H18.6401L97.9501 16.08" fill="#023046"/>
<path d="M122.56 148.64C123.35 148.48 124.49 148.39 125.57 148.39C127.24 148.39 128.32 148.7 129.08 149.38C129.69 149.92 130.03 150.75 130.03 151.68C130.03 153.28 129.02 154.35 127.74 154.78V154.83C128.68 155.15 129.23 156.02 129.52 157.28C129.92 158.97 130.2 160.14 130.46 160.61H128.84C128.64 160.27 128.37 159.22 128.03 157.71C127.67 156.04 127.02 155.41 125.6 155.35H124.12V160.61H122.55V148.64H122.56ZM124.13 154.17H125.73C127.4 154.17 128.47 153.25 128.47 151.87C128.47 150.3 127.34 149.62 125.68 149.6C124.92 149.6 124.38 149.67 124.13 149.74V154.17Z" fill="black"/>
<path d="M133.14 156.54C133.18 158.68 134.54 159.57 136.13 159.57C137.26 159.57 137.95 159.37 138.54 159.12L138.81 160.25C138.25 160.5 137.3 160.79 135.91 160.79C133.23 160.79 131.62 159.03 131.62 156.4C131.62 153.77 133.17 151.7 135.71 151.7C138.55 151.7 139.31 154.2 139.31 155.81C139.31 156.13 139.27 156.39 139.26 156.55H133.14V156.54ZM137.79 155.41C137.81 154.4 137.37 152.83 135.59 152.83C133.99 152.83 133.29 154.31 133.16 155.41H137.79Z" fill="black"/>
<path d="M146.1 160.61L145.97 159.51H145.92C145.43 160.19 144.5 160.81 143.25 160.81C141.49 160.81 140.58 159.57 140.58 158.31C140.58 156.2 142.45 155.05 145.82 155.07V154.89C145.82 154.17 145.62 152.87 143.84 152.87C143.03 152.87 142.18 153.12 141.57 153.52L141.21 152.48C141.93 152.01 142.97 151.71 144.07 151.71C146.74 151.71 147.38 153.53 147.38 155.28V158.54C147.38 159.3 147.42 160.04 147.52 160.63H146.08L146.1 160.61ZM145.87 156.16C144.14 156.12 142.18 156.43 142.18 158.12C142.18 159.15 142.86 159.63 143.67 159.63C144.8 159.63 145.52 158.91 145.78 158.17C145.83 158.01 145.87 157.83 145.87 157.67V156.16Z" fill="black"/>
<path d="M149.95 147.83H151.53V160.61H149.95V147.83Z" fill="black"/>
<path d="M156.11 149.4V151.9H158.38V153.11H156.11V157.81C156.11 158.89 156.42 159.5 157.3 159.5C157.71 159.5 158.02 159.45 158.22 159.39L158.29 160.58C157.98 160.71 157.5 160.8 156.89 160.8C156.15 160.8 155.56 160.57 155.18 160.13C154.73 159.66 154.57 158.89 154.57 157.86V153.11H153.22V151.9H154.57V149.81L156.12 149.39L156.11 149.4Z" fill="black"/>
<path d="M160.9 151.9L162.81 157.05C163.01 157.63 163.22 158.31 163.37 158.83H163.41C163.57 158.31 163.75 157.64 163.97 157.01L165.7 151.9H167.37L164.99 158.11C163.86 161.1 163.08 162.63 162 163.57C161.23 164.25 160.45 164.52 160.06 164.6L159.66 163.27C160.06 163.14 160.58 162.89 161.05 162.5C161.48 162.16 162.02 161.54 162.38 160.74C162.45 160.58 162.51 160.45 162.51 160.36C162.51 160.27 162.47 160.14 162.4 159.95L159.18 151.92H160.91L160.9 151.9Z" fill="black"/>
<path d="M172.45 158.71C173.15 159.14 174.18 159.5 175.26 159.5C176.86 159.5 177.8 158.65 177.8 157.43C177.8 156.3 177.15 155.65 175.51 155.02C173.53 154.32 172.3 153.29 172.3 151.58C172.3 149.69 173.87 148.29 176.23 148.29C177.47 148.29 178.37 148.58 178.91 148.88L178.48 150.16C178.08 149.94 177.27 149.58 176.18 149.58C174.52 149.58 173.89 150.57 173.89 151.4C173.89 152.53 174.63 153.09 176.3 153.74C178.35 154.53 179.4 155.52 179.4 157.31C179.4 159.18 178.01 160.8 175.15 160.8C173.98 160.8 172.7 160.46 172.05 160.03L172.45 158.72V158.71Z" fill="black"/>
<path d="M182.48 156.54C182.52 158.68 183.88 159.57 185.47 159.57C186.6 159.57 187.29 159.37 187.88 159.12L188.15 160.25C187.59 160.5 186.64 160.79 185.25 160.79C182.57 160.79 180.96 159.03 180.96 156.4C180.96 153.77 182.51 151.7 185.05 151.7C187.89 151.7 188.65 154.2 188.65 155.81C188.65 156.13 188.61 156.39 188.6 156.55H182.48V156.54ZM187.13 155.41C187.15 154.4 186.71 152.83 184.93 152.83C183.33 152.83 182.63 154.31 182.5 155.41H187.13Z" fill="black"/>
<path d="M190.62 154.62C190.62 153.59 190.6 152.71 190.55 151.9H191.94L191.99 153.61H192.06C192.46 152.44 193.41 151.7 194.47 151.7C194.65 151.7 194.78 151.72 194.92 151.75V153.24C194.76 153.2 194.6 153.19 194.38 153.19C193.26 153.19 192.47 154.04 192.26 155.22C192.22 155.44 192.19 155.69 192.19 155.96V160.61H190.62V154.61V154.62Z" fill="black"/>
<path d="M197.56 151.9L199.27 156.8C199.56 157.59 199.79 158.31 199.97 159.03H200.02C200.22 158.31 200.47 157.59 200.76 156.8L202.45 151.9H204.11L200.69 160.61H199.18L195.87 151.9H197.56Z" fill="black"/>
<path d="M207.37 149.45C207.39 149.99 206.99 150.42 206.36 150.42C205.8 150.42 205.41 149.99 205.41 149.45C205.41 148.91 205.82 148.46 206.4 148.46C206.98 148.46 207.37 148.89 207.37 149.45ZM205.61 160.61V151.9H207.19V160.61H205.61Z" fill="black"/>
<path d="M216.03 160.29C215.62 160.51 214.7 160.79 213.53 160.79C210.9 160.79 209.19 159.01 209.19 156.34C209.19 153.67 211.03 151.71 213.87 151.71C214.81 151.71 215.63 151.94 216.07 152.16L215.71 153.38C215.33 153.16 214.74 152.96 213.87 152.96C211.87 152.96 210.79 154.44 210.79 156.26C210.79 158.28 212.09 159.52 213.82 159.52C214.72 159.52 215.31 159.29 215.76 159.09L216.03 160.28V160.29Z" fill="black"/>
<path d="M218.66 156.54C218.7 158.68 220.06 159.57 221.65 159.57C222.78 159.57 223.47 159.37 224.06 159.12L224.33 160.25C223.77 160.5 222.82 160.79 221.43 160.79C218.75 160.79 217.14 159.03 217.14 156.4C217.14 153.77 218.69 151.7 221.23 151.7C224.07 151.7 224.83 154.2 224.83 155.81C224.83 156.13 224.79 156.39 224.78 156.55H218.66V156.54ZM223.31 155.41C223.33 154.4 222.9 152.83 221.11 152.83C219.51 152.83 218.81 154.31 218.68 155.41H223.31Z" fill="black"/>
<path d="M226.58 158.99C227.05 159.3 227.88 159.62 228.67 159.62C229.82 159.62 230.36 159.04 230.36 158.32C230.36 157.6 229.91 157.15 228.74 156.72C227.17 156.16 226.44 155.3 226.44 154.25C226.44 152.84 227.57 151.69 229.45 151.69C230.33 151.69 231.11 151.94 231.59 152.23L231.19 153.38C230.85 153.16 230.22 152.88 229.41 152.88C228.47 152.88 227.95 153.42 227.95 154.07C227.95 154.79 228.47 155.11 229.61 155.55C231.12 156.13 231.9 156.88 231.9 158.18C231.9 159.71 230.71 160.79 228.64 160.79C227.69 160.79 226.8 160.56 226.19 160.2L226.59 158.99H226.58Z" fill="black"/>
</svg>
