<svg width="40" height="40" viewBox="0 0 40 40" fill="none" xmlns="http://www.w3.org/2000/svg">
<path d="M19.9999 27.4583C22.7499 25.236 24.8263 23.0971 26.2291 21.0416C27.6319 18.986 28.3333 17.0555 28.3333 15.2499C28.3333 13.6944 28.0485 12.368 27.4791 11.2708C26.9096 10.1735 26.2083 9.28464 25.3749 8.60408C24.5416 7.92353 23.6388 7.43047 22.6666 7.12492C21.6944 6.81936 20.8055 6.66658 19.9999 6.66658C19.1944 6.66658 18.3055 6.81936 17.3333 7.12492C16.361 7.43047 15.4583 7.92353 14.6249 8.60408C13.7916 9.28464 13.0902 10.1735 12.5208 11.2708C11.9513 12.368 11.6666 13.6944 11.6666 15.2499C11.6666 17.0555 12.368 18.986 13.7708 21.0416C15.1735 23.0971 17.2499 25.236 19.9999 27.4583ZM19.9999 30.9999C19.7221 30.9999 19.4513 30.9583 19.1874 30.8749C18.9235 30.7916 18.6805 30.6666 18.4583 30.4999C16.2083 28.7499 13.9583 26.5485 11.7083 23.8958C9.45825 21.243 8.33325 18.361 8.33325 15.2499C8.33325 13.2777 8.68742 11.5485 9.39575 10.0624C10.1041 8.57631 11.0138 7.33325 12.1249 6.33325C13.236 5.33325 14.486 4.58325 15.8749 4.08325C17.2638 3.58325 18.6388 3.33325 19.9999 3.33325C21.361 3.33325 22.736 3.58325 24.1249 4.08325C25.5138 4.58325 26.7638 5.33325 27.8749 6.33325C28.986 7.33325 29.8958 8.57631 30.6041 10.0624C31.3124 11.5485 31.6666 13.2777 31.6666 15.2499C31.6666 18.361 30.5416 21.243 28.2916 23.8958C26.0416 26.5485 23.7916 28.7499 21.5416 30.4999C21.3194 30.6666 21.0763 30.7916 20.8124 30.8749C20.5485 30.9583 20.2777 30.9999 19.9999 30.9999ZM19.9999 18.3333C20.9166 18.3333 21.7013 18.0069 22.3541 17.3541C23.0069 16.7013 23.3333 15.9166 23.3333 14.9999C23.3333 14.0833 23.0069 13.2985 22.3541 12.6458C21.7013 11.993 20.9166 11.6666 19.9999 11.6666C19.0833 11.6666 18.2985 11.993 17.6458 12.6458C16.993 13.2985 16.6666 14.0833 16.6666 14.9999C16.6666 15.9166 16.993 16.7013 17.6458 17.3541C18.2985 18.0069 19.0833 18.3333 19.9999 18.3333ZM9.99992 36.6666C9.5277 36.6666 9.13186 36.5069 8.81242 36.1874C8.49297 35.868 8.33325 35.4721 8.33325 34.9999C8.33325 34.5277 8.49297 34.1319 8.81242 33.8124C9.13186 33.493 9.5277 33.3333 9.99992 33.3333H29.9999C30.4721 33.3333 30.868 33.493 31.1874 33.8124C31.5069 34.1319 31.6666 34.5277 31.6666 34.9999C31.6666 35.4721 31.5069 35.868 31.1874 36.1874C30.868 36.5069 30.4721 36.6666 29.9999 36.6666H9.99992Z" fill="#F77F15"/>
</svg>
