<svg width="40" height="40" viewBox="0 0 40 40" fill="none" xmlns="http://www.w3.org/2000/svg">
<path d="M23.75 35.6666C23.1112 36.3055 22.3195 36.6249 21.375 36.6249C20.4306 36.6249 19.6389 36.3055 19 35.6666L4.33337 20.9999C4.02782 20.6944 3.78476 20.3333 3.60421 19.9166C3.42365 19.4999 3.33337 19.0555 3.33337 18.5833V6.66659C3.33337 5.74992 3.65976 4.9652 4.31254 4.31242C4.96532 3.65964 5.75004 3.33325 6.66671 3.33325H18.5834C19.0556 3.33325 19.5 3.42353 19.9167 3.60409C20.3334 3.78464 20.6945 4.0277 21 4.33325L35.6667 19.0416C36.3056 19.6805 36.625 20.4652 36.625 21.3958C36.625 22.3263 36.3056 23.111 35.6667 23.7499L23.75 35.6666ZM21.375 33.3333L33.2917 21.4166L18.5834 6.66659H6.66671V18.5833L21.375 33.3333ZM10.8334 13.3333C11.5278 13.3333 12.1181 13.0902 12.6042 12.6041C13.0903 12.118 13.3334 11.5277 13.3334 10.8333C13.3334 10.1388 13.0903 9.54853 12.6042 9.06242C12.1181 8.57631 11.5278 8.33325 10.8334 8.33325C10.1389 8.33325 9.54865 8.57631 9.06254 9.06242C8.57643 9.54853 8.33337 10.1388 8.33337 10.8333C8.33337 11.5277 8.57643 12.118 9.06254 12.6041C9.54865 13.0902 10.1389 13.3333 10.8334 13.3333Z" fill="#F77F15"/>
</svg>
