<svg width="40" height="40" viewBox="0 0 40 40" fill="none" xmlns="http://www.w3.org/2000/svg">
<path d="M12.375 15.7917L18.5833 5.66667C18.75 5.38889 18.9583 5.1875 19.2083 5.0625C19.4583 4.9375 19.7222 4.875 20 4.875C20.2778 4.875 20.5417 4.9375 20.7917 5.0625C21.0417 5.1875 21.25 5.38889 21.4167 5.66667L27.625 15.7917C27.7917 16.0694 27.875 16.3611 27.875 16.6667C27.875 16.9722 27.8056 17.25 27.6667 17.5C27.5278 17.75 27.3333 17.9514 27.0833 18.1042C26.8333 18.2569 26.5417 18.3333 26.2083 18.3333H13.7917C13.4583 18.3333 13.1667 18.2569 12.9167 18.1042C12.6667 17.9514 12.4722 17.75 12.3333 17.5C12.1944 17.25 12.125 16.9722 12.125 16.6667C12.125 16.3611 12.2083 16.0694 12.375 15.7917ZM29.1667 36.6667C27.0833 36.6667 25.3125 35.9375 23.8542 34.4792C22.3958 33.0208 21.6667 31.25 21.6667 29.1667C21.6667 27.0833 22.3958 25.3125 23.8542 23.8542C25.3125 22.3958 27.0833 21.6667 29.1667 21.6667C31.25 21.6667 33.0208 22.3958 34.4792 23.8542C35.9375 25.3125 36.6667 27.0833 36.6667 29.1667C36.6667 31.25 35.9375 33.0208 34.4792 34.4792C33.0208 35.9375 31.25 36.6667 29.1667 36.6667ZM5 34.1667V24.1667C5 23.6944 5.15972 23.2986 5.47917 22.9792C5.79861 22.6597 6.19444 22.5 6.66667 22.5H16.6667C17.1389 22.5 17.5347 22.6597 17.8542 22.9792C18.1736 23.2986 18.3333 23.6944 18.3333 24.1667V34.1667C18.3333 34.6389 18.1736 35.0347 17.8542 35.3542C17.5347 35.6736 17.1389 35.8333 16.6667 35.8333H6.66667C6.19444 35.8333 5.79861 35.6736 5.47917 35.3542C5.15972 35.0347 5 34.6389 5 34.1667ZM29.1667 33.3333C30.3333 33.3333 31.3194 32.9306 32.125 32.125C32.9306 31.3194 33.3333 30.3333 33.3333 29.1667C33.3333 28 32.9306 27.0139 32.125 26.2083C31.3194 25.4028 30.3333 25 29.1667 25C28 25 27.0139 25.4028 26.2083 26.2083C25.4028 27.0139 25 28 25 29.1667C25 30.3333 25.4028 31.3194 26.2083 32.125C27.0139 32.9306 28 33.3333 29.1667 33.3333ZM8.33333 32.5H15V25.8333H8.33333V32.5ZM16.75 15H23.25L20 9.75L16.75 15Z" fill="#F77F15"/>
</svg>
