<svg width="40" height="40" viewBox="0 0 40 40" fill="none" xmlns="http://www.w3.org/2000/svg">
<path d="M35 21.6666H31.6667C31.1945 21.6666 30.7987 21.5068 30.4792 21.1874C30.1598 20.8679 30 20.4721 30 19.9999C30 19.5277 30.1598 19.1318 30.4792 18.8124C30.7987 18.4929 31.1945 18.3332 31.6667 18.3332H35C35.4723 18.3332 35.8681 18.4929 36.1875 18.8124C36.507 19.1318 36.6667 19.5277 36.6667 19.9999C36.6667 20.4721 36.507 20.8679 36.1875 21.1874C35.8681 21.5068 35.4723 21.6666 35 21.6666ZM27.6667 27.9999C27.9445 27.611 28.3056 27.3888 28.75 27.3332C29.1945 27.2777 29.6112 27.3888 30 27.6666L32.6667 29.6666C33.0556 29.9443 33.2778 30.3054 33.3334 30.7499C33.3889 31.1943 33.2778 31.611 33 31.9999C32.7223 32.3888 32.3612 32.611 31.9167 32.6666C31.4723 32.7221 31.0556 32.611 30.6667 32.3332L28 30.3332C27.6112 30.0554 27.3889 29.6943 27.3334 29.2499C27.2778 28.8054 27.3889 28.3888 27.6667 27.9999ZM32.6667 10.3332L30 12.3332C29.6112 12.611 29.1945 12.7221 28.75 12.6666C28.3056 12.611 27.9445 12.3888 27.6667 11.9999C27.3889 11.611 27.2778 11.1943 27.3334 10.7499C27.3889 10.3054 27.6112 9.94434 28 9.66656L30.6667 7.66656C31.0556 7.38878 31.4723 7.27767 31.9167 7.33322C32.3612 7.38878 32.7223 7.611 33 7.99989C33.2778 8.38878 33.3889 8.80545 33.3334 9.24989C33.2778 9.69434 33.0556 10.0554 32.6667 10.3332ZM8.33337 24.9999H6.66671C5.75004 24.9999 4.96532 24.6735 4.31254 24.0207C3.65976 23.3679 3.33337 22.5832 3.33337 21.6666V18.3332C3.33337 17.4166 3.65976 16.6318 4.31254 15.9791C4.96532 15.3263 5.75004 14.9999 6.66671 14.9999H13.3334L19.125 11.4999C19.6806 11.1666 20.2431 11.1666 20.8125 11.4999C21.382 11.8332 21.6667 12.3193 21.6667 12.9582V27.0416C21.6667 27.6804 21.382 28.1666 20.8125 28.4999C20.2431 28.8332 19.6806 28.8332 19.125 28.4999L13.3334 24.9999H11.6667V29.9999C11.6667 30.4721 11.507 30.8679 11.1875 31.1874C10.8681 31.5068 10.4723 31.6666 10 31.6666C9.52782 31.6666 9.13198 31.5068 8.81254 31.1874C8.4931 30.8679 8.33337 30.4721 8.33337 29.9999V24.9999ZM18.3334 24.0832V15.9166L14.25 18.3332H6.66671V21.6666H14.25L18.3334 24.0832ZM23.3334 25.5832V14.4166C24.0834 15.0832 24.6875 15.8957 25.1459 16.8541C25.6042 17.8124 25.8334 18.861 25.8334 19.9999C25.8334 21.1388 25.6042 22.1874 25.1459 23.1457C24.6875 24.1041 24.0834 24.9166 23.3334 25.5832Z" fill="#F77F15"/>
</svg>
